<svg width="75" height="17" viewBox="0 0 75 17" fill="none" xmlns="http://www.w3.org/2000/svg">
<path d="M2.54886 8.00357H6.13886C6.13886 7.74357 6.13886 7.54357 6.13886 7.41357H12.2589V5.52357H6.70886C7.11062 4.76196 7.72114 4.13063 8.46886 3.70357C9.25717 3.24154 10.1551 2.99978 11.0689 3.00357C11.8101 2.99646 12.5437 3.15428 13.2165 3.46559C13.8893 3.77691 14.4844 4.23393 14.9589 4.80357L17.2289 2.69357C16.4904 1.82407 15.559 1.13918 14.5089 0.693569C13.3627 0.216343 12.1302 -0.0185808 10.8889 0.00356872C9.6723 -0.00568247 8.46589 0.225405 7.33886 0.683569C6.28038 1.11716 5.331 1.77967 4.55886 2.62357C3.79206 3.44968 3.22727 4.44234 2.90886 5.52357H0.418858V7.37357H2.57886C2.55334 7.58254 2.54331 7.79312 2.54886 8.00357Z" fill="white"/>
<path d="M21.2289 14.1836L18.9589 12.0736C18.4864 12.6469 17.8921 13.1077 17.2192 13.4225C16.5463 13.7373 15.8117 13.8983 15.0689 13.8936C14.1588 13.9095 13.2611 13.6816 12.4689 13.2336C11.7211 12.8065 11.1106 12.1752 10.7089 11.4136H16.2789V9.56358H10.1589C10.1589 9.43358 10.1589 9.23358 10.1589 8.96358H6.54886C6.53498 9.16334 6.53498 9.36382 6.54886 9.56358L4.41886 9.56357V11.4136L6.90886 11.4136C7.2296 12.4938 7.79411 13.486 8.55886 14.3136C9.33101 15.1575 10.2804 15.82 11.3389 16.2536C12.4659 16.7117 13.6723 16.9428 14.8889 16.9336C16.1316 16.9494 17.3642 16.7077 18.5089 16.2236C19.5646 15.7691 20.497 15.0698 21.2289 14.1836Z" fill="white"/>
<path d="M18.1689 0.263565V3.12356H21.2489V7.96356H24.8189V0.263565H18.1689Z" fill="white"/>
<path d="M28.8089 8.96358H25.2489V16.6636H28.8089V8.96358Z" fill="white"/>
<path d="M37.5089 1.00358C36.7452 0.511216 35.884 0.190138 34.9844 0.0624359C34.0848 -0.0652659 33.1683 0.00344014 32.2978 0.263827C31.4273 0.524213 30.6235 0.970098 29.9418 1.5708C29.2602 2.1715 28.7167 2.91276 28.3489 3.74358C27.7514 5.08242 27.461 6.53796 27.4989 8.00358H31.1089C31.0232 6.70682 31.3002 5.41181 31.9089 4.26358C32.1431 3.89174 32.4677 3.58533 32.8524 3.37296C33.2371 3.1606 33.6694 3.04922 34.1089 3.04922C34.5483 3.04922 34.9806 3.1606 35.3653 3.37296C35.75 3.58533 36.0747 3.89174 36.3089 4.26358C36.9287 5.40798 37.2096 6.70528 37.1189 8.00358H40.6989C40.7383 6.5346 40.4478 5.07548 39.8489 3.73358C39.3521 2.61464 38.5387 1.66561 37.5089 1.00358Z" fill="white"/>
<path d="M43.8489 13.2436C44.4431 11.9107 44.7334 10.4624 44.6989 9.00357H41.1189C41.2119 10.302 40.9308 11.5999 40.3089 12.7436C40.0747 13.1154 39.75 13.4218 39.3653 13.6342C38.9806 13.8465 38.5483 13.9579 38.1089 13.9579C37.6694 13.9579 37.2371 13.8465 36.8524 13.6342C36.4677 13.4218 36.1431 13.1154 35.9089 12.7436C35.2956 11.597 35.0183 10.3007 35.1089 9.00357H31.4989C31.4583 10.4759 31.7488 11.9385 32.3489 13.2836C32.8318 14.4006 33.6368 15.3484 34.661 16.0056C35.6852 16.6629 36.8822 16.9999 38.0989 16.9736C39.3156 16.9999 40.5125 16.6629 41.5367 16.0056C42.5609 15.3484 43.3659 14.4006 43.8489 13.2836V13.2436Z" fill="white"/>
<path d="M52.4189 1.00358C51.6552 0.511216 50.794 0.190138 49.8944 0.0624359C48.9948 -0.0652659 48.0783 0.00344014 47.2078 0.263827C46.3373 0.524213 45.5335 0.970098 44.8518 1.5708C44.1702 2.1715 43.6267 2.91276 43.2589 3.74358C42.6648 5.08321 42.3778 6.53872 42.4189 8.00358H46.0289C45.9356 6.70628 46.213 5.4092 46.8289 4.26358C47.0631 3.89174 47.3877 3.58533 47.7724 3.37296C48.1571 3.1606 48.5894 3.04922 49.0289 3.04922C49.4683 3.04922 49.9006 3.1606 50.2853 3.37296C50.67 3.58533 50.9947 3.89174 51.2289 4.26358C51.8516 5.40715 52.136 6.70435 52.0489 8.00358H55.6389C55.6783 6.5346 55.3878 5.07548 54.7889 3.73358C54.284 2.61062 53.4598 1.66115 52.4189 1.00358Z" fill="white"/>
<path d="M58.7889 13.2436C59.3831 11.9107 59.6734 10.4624 59.6389 9.00357H56.0489C56.1444 10.301 55.8668 11.5987 55.2489 12.7436C55.0147 13.1154 54.69 13.4218 54.3053 13.6342C53.9206 13.8465 53.4883 13.9579 53.0489 13.9579C52.6094 13.9579 52.1771 13.8465 51.7924 13.6342C51.4077 13.4218 51.0831 13.1154 50.8489 12.7436C50.2309 11.5987 49.9534 10.301 50.0489 9.00357H46.4189C46.3783 10.4759 46.6688 11.9385 47.2689 13.2836C47.7518 14.4006 48.5568 15.3484 49.581 16.0056C50.6052 16.6629 51.8022 16.9999 53.0189 16.9736C54.2356 16.9999 55.4325 16.6629 56.4567 16.0056C57.4809 15.3484 58.2859 14.4006 58.7689 13.2836L58.7889 13.2436Z" fill="white"/>
<path d="M67.4189 1.00357C66.3898 0.382591 65.2107 0.0543976 64.0089 0.0543976C62.807 0.0543976 61.6279 0.382591 60.5989 1.00357C59.5632 1.65251 58.7368 2.58654 58.2189 3.69357C57.6367 5.05338 57.3635 6.52541 57.4189 8.00357H61.0189C60.9281 6.70527 61.209 5.40797 61.8289 4.26357C62.0457 3.88386 62.3584 3.56768 62.7357 3.34658C63.1129 3.12549 63.5416 3.00721 63.9789 3.00357C64.4205 2.99659 64.8563 3.10444 65.2437 3.31655C65.6311 3.52866 65.9568 3.83776 66.1889 4.21357C66.8067 5.3765 67.084 6.69013 66.9889 8.00357H70.5789C70.6146 6.53491 70.3243 5.0766 69.7289 3.73357C69.2339 2.62255 68.4326 1.67558 67.4189 1.00357Z" fill="white"/>
<path d="M73.7289 13.2436C74.3199 11.9097 74.6101 10.4622 74.5789 9.00357H70.9889C71.0794 10.3007 70.8021 11.597 70.1889 12.7436C69.9598 13.1222 69.6348 13.4335 69.2467 13.646C68.8586 13.8585 68.4212 13.9646 67.9789 13.9536C67.5393 13.9641 67.1049 13.8576 66.7201 13.645C66.3353 13.4324 66.0139 13.1213 65.7889 12.7436C65.1669 11.5999 64.8858 10.302 64.9789 9.00357H61.4189C61.3805 10.4747 61.6673 11.9361 62.2589 13.2836C62.753 14.3924 63.5547 15.3364 64.5689 16.0036C65.5898 16.6433 66.7742 16.9733 67.9789 16.9536C69.1933 16.9768 70.3884 16.6468 71.4189 16.0036C72.437 15.3235 73.2387 14.3656 73.7289 13.2436Z" fill="white"/>
</svg>
