<svg width="89" height="17" viewBox="0 0 89 17" fill="none" xmlns="http://www.w3.org/2000/svg">
<path d="M2.13 8.00357H5.72C5.72 7.74357 5.72 7.54357 5.72 7.41357H11.84V5.52357H6.29C6.69177 4.76196 7.30228 4.13063 8.05 3.70357C8.83831 3.24154 9.73627 2.99978 10.65 3.00357C11.3913 2.99646 12.1249 3.15428 12.7977 3.46559C13.4704 3.77691 14.0656 4.23393 14.54 4.80357L16.81 2.69357C16.0716 1.82407 15.1401 1.13918 14.09 0.693569C12.9438 0.216343 11.7113 -0.0185808 10.47 0.00356872C9.25344 -0.00568247 8.04703 0.225405 6.92 0.683569C5.86152 1.11716 4.91215 1.77967 4.14 2.62357C3.37321 3.44968 2.80841 4.44234 2.49 5.52357H0V7.37357H2.16C2.13448 7.58254 2.12446 7.79312 2.13 8.00357Z" fill="white"/>
<path d="M20.81 14.1836L18.54 12.0736C18.0675 12.6469 17.4733 13.1077 16.8004 13.4225C16.1275 13.7373 15.3929 13.8983 14.65 13.8936C13.74 13.9095 12.8422 13.6816 12.05 13.2336C11.3023 12.8065 10.6918 12.1752 10.29 11.4136H15.86V9.56358H9.74C9.74 9.43358 9.74 9.23358 9.74 8.96358H6.13C6.11613 9.16334 6.11613 9.36382 6.13 9.56358L4 9.56357V11.4136L6.49 11.4136C6.81075 12.4938 7.37525 13.486 8.14 14.3136C8.91215 15.1575 9.86152 15.82 10.92 16.2536C12.0467 16.7128 13.2533 16.9439 14.47 16.9336C15.7127 16.9494 16.9453 16.7077 18.09 16.2236C19.1457 15.7691 20.0781 15.0698 20.81 14.1836Z" fill="white"/>
<path d="M17.75 0.263565V3.12356H20.83V7.96356H24.4V0.263565H17.75Z" fill="white"/>
<path d="M28.39 8.96358H24.83V16.6636H28.39V8.96358Z" fill="white"/>
<path d="M39 6.24357C39.3141 5.68202 39.4729 5.04689 39.46 4.40357C39.476 3.56671 39.2159 2.74787 38.72 2.07357C38.1619 1.37114 37.4165 0.840761 36.57 0.543574C35.5772 0.167247 34.5216 -0.016035 33.46 0.00357398C32.4082 -0.0151608 31.3627 0.168156 30.38 0.543574C29.5565 0.852874 28.8337 1.38206 28.29 2.07357C27.7871 2.74485 27.5231 3.56499 27.54 4.40357C27.5287 5.04356 27.6887 5.67493 28.0034 6.23229C28.3181 6.78966 28.7761 7.25274 29.33 7.57357C29.1039 7.6872 28.8867 7.81757 28.68 7.96357H38.27C38.0634 7.81757 37.8461 7.6872 37.62 7.57357C38.1886 7.25876 38.6644 6.80012 39 6.24357ZM35.26 5.94357C34.7468 6.30545 34.1272 6.48501 33.5 6.45357C32.8788 6.48677 32.265 6.30685 31.76 5.94357C31.5533 5.77754 31.3886 5.5652 31.2792 5.32374C31.1697 5.08227 31.1186 4.81844 31.13 4.55357C31.1182 4.28333 31.17 4.01409 31.2812 3.76747C31.3923 3.52086 31.5597 3.30375 31.77 3.13357C32.2726 2.77321 32.8823 2.59347 33.5 2.62357C34.1272 2.59214 34.7468 2.77169 35.26 3.13357C35.4752 3.3006 35.6473 3.51659 35.7621 3.76359C35.8769 4.01058 35.931 4.28143 35.92 4.55357C35.9258 4.82483 35.865 5.09337 35.743 5.33569C35.621 5.57801 35.4414 5.78673 35.22 5.94357H35.26Z" fill="white"/>
<path d="M43.16 14.7036C43.7146 13.9892 44.0107 13.1079 44 12.2036C44.0147 11.4468 43.806 10.7024 43.4 10.0636C43.0923 9.64678 42.7131 9.28789 42.28 9.00357H32.68C32.2571 9.30269 31.8913 9.67526 31.6 10.1036C31.202 10.7312 30.9937 11.4604 31 12.2036C30.9807 13.1043 31.2661 13.9852 31.81 14.7036C32.3923 15.4538 33.1762 16.0226 34.07 16.3436C35.1556 16.7543 36.3095 16.9546 37.47 16.9336C38.6338 16.9546 39.791 16.7544 40.88 16.3436C41.7778 16.0196 42.5674 15.4517 43.16 14.7036ZM39.58 13.7036C38.9476 14.0949 38.2187 14.3023 37.475 14.3023C36.7313 14.3023 36.0024 14.0949 35.37 13.7036C35.123 13.5111 34.9247 13.2634 34.7909 12.9802C34.6572 12.6971 34.5918 12.3866 34.6 12.0736C34.5901 11.7632 34.6549 11.4549 34.7889 11.1748C34.9229 10.8946 35.1222 10.6507 35.37 10.4636C35.9825 10.0417 36.7173 9.83423 37.46 9.87357C38.2122 9.83281 38.957 10.0401 39.58 10.4636C39.8341 10.6461 40.0391 10.8886 40.1769 11.1695C40.3147 11.4504 40.381 11.7609 40.37 12.0736C40.3825 12.3907 40.317 12.7061 40.1793 12.992C40.0416 13.2779 39.8358 13.5257 39.58 13.7136V13.7036Z" fill="white"/>
<path d="M51.61 1.00358C50.8464 0.511216 49.9851 0.190138 49.0855 0.0624359C48.186 -0.0652659 47.2694 0.00344014 46.3989 0.263827C45.5284 0.524213 44.7247 0.970098 44.043 1.5708C43.3613 2.1715 42.8178 2.91276 42.45 3.74358C41.8525 5.08242 41.5621 6.53796 41.6 8.00358H45.21C45.1137 6.69443 45.3874 5.38458 46 4.22358C46.2342 3.85174 46.5588 3.54533 46.9435 3.33296C47.3283 3.1206 47.7606 3.00922 48.2 3.00922C48.6394 3.00922 49.0717 3.1206 49.4564 3.33296C49.8412 3.54533 50.1658 3.85174 50.4 4.22358C51.0308 5.37864 51.3155 6.69097 51.22 8.00358H54.8C54.8611 6.52501 54.5877 5.05171 54 3.69358C53.4833 2.58266 52.6524 1.64747 51.61 1.00358Z" fill="white"/>
<path d="M58 13.2436C58.5771 11.9068 58.8503 10.4587 58.8 9.00357H55.22C55.313 10.302 55.0319 11.5999 54.41 12.7436C54.1758 13.1154 53.8512 13.4218 53.4664 13.6342C53.0817 13.8465 52.6494 13.9579 52.21 13.9579C51.7706 13.9579 51.3383 13.8465 50.9535 13.6342C50.5688 13.4218 50.2442 13.1154 50.01 12.7436C49.3968 11.597 49.1195 10.3007 49.21 9.00357H45.6C45.5594 10.4759 45.8499 11.9385 46.45 13.2836C46.9329 14.4006 47.7379 15.3484 48.7622 16.0056C49.7864 16.6629 50.9833 16.9999 52.2 16.9736C53.4296 17.0067 54.6407 16.6686 55.6754 16.0032C56.71 15.3379 57.5201 14.3762 58 13.2436Z" fill="white"/>
<path d="M66.55 1.00358C65.7864 0.511216 64.9251 0.190138 64.0255 0.0624359C63.126 -0.0652659 62.2094 0.00344014 61.3389 0.263827C60.4684 0.524213 59.6647 0.970098 58.983 1.5708C58.3013 2.1715 57.7578 2.91276 57.39 3.74358C56.7925 5.08242 56.5021 6.53796 56.54 8.00358H60.15C60.0642 6.68808 60.3593 5.37573 61 4.22358C61.2342 3.85174 61.5588 3.54533 61.9435 3.33296C62.3283 3.1206 62.7606 3.00922 63.2 3.00922C63.6394 3.00922 64.0717 3.1206 64.4565 3.33296C64.8412 3.54533 65.1658 3.85174 65.4 4.22358C66.006 5.38603 66.2663 6.6978 66.15 8.00358H69.74C69.7794 6.5346 69.4889 5.07548 68.89 3.73358C68.3932 2.61464 67.5798 1.66561 66.55 1.00358Z" fill="white"/>
<path d="M72.89 13.2436C73.4842 11.9107 73.7746 10.4624 73.74 9.00357H70.15C70.2455 10.301 69.9679 11.5987 69.35 12.7436C69.1158 13.1154 68.7912 13.4218 68.4064 13.6342C68.0217 13.8465 67.5894 13.9579 67.15 13.9579C66.7105 13.9579 66.2783 13.8465 65.8935 13.6342C65.5088 13.4218 65.1842 13.1154 64.95 12.7436C64.3321 11.5987 64.0545 10.301 64.15 9.00357H60.54C60.4994 10.4759 60.7899 11.9385 61.39 13.2836C61.8729 14.4006 62.6779 15.3484 63.7021 16.0056C64.7264 16.6629 65.9233 16.9999 67.14 16.9736C68.3567 16.9999 69.5536 16.6629 70.5778 16.0056C71.6021 15.3484 72.4071 14.4006 72.89 13.2836V13.2436Z" fill="white"/>
<path d="M81.49 1.00357C80.461 0.382591 79.2819 0.0543976 78.08 0.0543976C76.8781 0.0543976 75.699 0.382591 74.67 1.00357C73.6381 1.67033 72.8218 2.62213 72.32 3.74357C71.7314 5.08491 71.4446 6.53918 71.48 8.00357H75.08C74.9892 6.70527 75.2702 5.40797 75.89 4.26357C76.1102 3.87797 76.4292 3.558 76.8141 3.33655C77.199 3.1151 77.636 3.00016 78.08 3.00357C78.5216 2.99659 78.9575 3.10444 79.3449 3.31655C79.7323 3.52866 80.058 3.83776 80.29 4.21357C80.9078 5.3765 81.1851 6.69013 81.09 8.00357H84.68C84.7157 6.53491 84.4254 5.0766 83.83 3.73357C83.3269 2.61865 82.5148 1.67126 81.49 1.00357Z" fill="white"/>
<path d="M87.83 13.2436C88.4211 11.9097 88.7113 10.4622 88.68 9.00357H85.09C85.1805 10.3007 84.9033 11.597 84.29 12.7436C84.061 13.1222 83.7359 13.4335 83.3478 13.646C82.9597 13.8585 82.5224 13.9646 82.08 13.9536C81.6405 13.9641 81.2061 13.8576 80.8212 13.645C80.4364 13.4324 80.115 13.1213 79.89 12.7436C79.2681 11.5999 78.987 10.302 79.08 9.00357H75.48C75.4417 10.4747 75.7285 11.9361 76.32 13.2836C76.825 14.3977 77.6411 15.3422 78.67 16.0036C79.6878 16.642 80.8687 16.9719 82.07 16.9536C83.2777 16.9729 84.4653 16.643 85.49 16.0036C86.5193 15.3278 87.3317 14.3695 87.83 13.2436Z" fill="white"/>
</svg>
