<svg width="111" height="18" viewBox="0 0 111 18" fill="none" xmlns="http://www.w3.org/2000/svg">
<path d="M2.13 8.01982H5.72C5.72 7.75982 5.72 7.55982 5.72 7.42982H11.84V5.53982H6.29C6.69177 4.77821 7.30228 4.14688 8.05 3.71982C8.83831 3.25779 9.73627 3.01603 10.65 3.01982C11.3913 3.01271 12.1249 3.17053 12.7977 3.48184C13.4704 3.79316 14.0656 4.25018 14.54 4.81982L16.81 2.70982C16.0716 1.84032 15.1401 1.15543 14.09 0.709819C12.9438 0.232594 11.7113 -0.00233017 10.47 0.0198193C9.25344 0.0105681 8.04703 0.241655 6.92 0.699819C5.86152 1.13341 4.91215 1.79592 4.14 2.63982C3.37321 3.46593 2.80841 4.45859 2.49 5.53982H0V7.38982H2.16C2.13448 7.59879 2.12446 7.80937 2.13 8.01982Z" fill="white"/>
<path d="M19.81 14.1998L17.54 12.0898C17.0675 12.6631 16.4733 13.1239 15.8004 13.4388C15.1275 13.7536 14.3929 13.9145 13.65 13.9098C12.74 13.9258 11.8422 13.6979 11.05 13.2498C10.3023 12.8228 9.69177 12.1914 9.29 11.4298H14.86V9.57983H8.74C8.74 9.44983 8.74 9.24983 8.74 8.97983H5.13C5.11613 9.17959 5.11613 9.38007 5.13 9.57983H3V11.4298H5.49C5.81075 12.5101 6.37525 13.5022 7.14 14.3298C7.91215 15.1737 8.86152 15.8362 9.92 16.2698C11.047 16.728 12.2534 16.9591 13.47 16.9498C14.7127 16.9656 15.9453 16.7239 17.09 16.2398C18.1457 15.7854 19.0781 15.0861 19.81 14.1998Z" fill="white"/>
<path d="M28.86 2.58982V0.279816H18.08V3.13982H24.64L21.47 6.72982V8.01982H28.4C27.5796 7.23325 26.5277 6.73183 25.4 6.58982L28.86 2.58982Z" fill="white"/>
<path d="M31.86 14.4498C32.3203 13.7226 32.5663 12.8804 32.57 12.0198C32.6216 10.9162 32.2332 9.83727 31.49 9.01982H24.47V10.1198H26.1C28 10.0798 29 10.7198 29 12.0198C29.0091 12.309 28.943 12.5957 28.808 12.8516C28.673 13.1075 28.4738 13.324 28.23 13.4798C27.5927 13.856 26.8591 14.0368 26.12 13.9998C25.3154 14.0024 24.5155 13.8775 23.75 13.6298C23.0318 13.4114 22.3556 13.0733 21.75 12.6298L20.36 15.3598C21.1664 15.8961 22.0596 16.2886 23 16.5198C24.0421 16.8082 25.1187 16.9529 26.2 16.9498C27.4122 16.9841 28.6172 16.752 29.73 16.2698C30.6017 15.8829 31.3418 15.2505 31.86 14.4498Z" fill="white"/>
<path d="M30.27 2.87981L32.87 4.54981C33.2138 4.05309 33.6831 3.65631 34.23 3.39981C34.8034 3.13631 35.4291 3.00638 36.06 3.01981C36.7119 2.97744 37.3592 3.15336 37.9 3.51981C38.1072 3.6915 38.2713 3.90942 38.379 4.15604C38.4866 4.40267 38.535 4.67112 38.52 4.93981C38.5137 5.3867 38.4006 5.8256 38.19 6.21981C37.8547 6.80275 37.4256 7.32643 36.92 7.76981L36.68 8.01981H40.89C41.156 7.71283 41.3874 7.37748 41.58 7.01981C41.9319 6.283 42.113 5.47632 42.11 4.65981C42.1297 3.80382 41.8777 2.96359 41.39 2.25981C40.8881 1.55044 40.1943 0.998882 39.39 0.669814C38.4386 0.280607 37.4177 0.0900379 36.39 0.109814C35.1379 0.0829565 33.8962 0.342922 32.76 0.869814C31.7649 1.30461 30.9049 1.99881 30.27 2.87981Z" fill="white"/>
<path d="M34 14.3698V16.6798H45.61V13.7798H39L42.54 10.4398C43.0288 10.005 43.4804 9.52997 43.89 9.01982H39.68L34 14.3698Z" fill="white"/>
<path d="M45 3.82981C44.3508 5.1174 44.0085 6.53783 44 7.97981H55.82C55.3738 7.4016 54.7985 6.93585 54.14 6.61981C53.3051 6.2153 52.3877 6.00992 51.46 6.01981C50.766 5.97758 50.0707 6.07631 49.4159 6.31005C48.7611 6.54378 48.1604 6.90768 47.65 7.37981C47.622 6.15685 48.0619 4.96932 48.88 4.05981C49.2962 3.66909 49.7872 3.36666 50.3234 3.17074C50.8596 2.97482 51.4299 2.88947 52 2.91981C53.0152 2.88452 54.0179 3.1526 54.88 3.68981L56.2 1.07981C55.6023 0.711511 54.9463 0.447737 54.26 0.299814C53.488 0.109093 52.6952 0.0150389 51.9 0.0198143C50.4672 -0.00245129 49.0524 0.34177 47.79 1.01981C46.5981 1.65399 45.6256 2.63344 45 3.82981Z" fill="white"/>
<path d="M59 14.5298C59.5197 13.7228 59.7877 12.7795 59.77 11.8198C59.7883 10.9294 59.5449 10.0532 59.07 9.29982L58.82 9.01982H47.06C47.06 9.13982 47.06 9.23982 47.06 9.34982C46.9116 11.4023 47.5599 13.433 48.87 15.0198C49.5204 15.6968 50.309 16.2259 51.1821 16.571C52.0553 16.9161 52.9925 17.0692 53.93 17.0198C54.9647 17.0388 55.9903 16.8234 56.93 16.3898C57.7821 15.9782 58.4999 15.3332 59 14.5298ZM55.6 13.6698C55.0763 14.0963 54.4149 14.3168 53.74 14.2898C53.0173 14.33 52.3052 14.1021 51.74 13.6498C51.5099 13.4399 51.326 13.1843 51.2002 12.8993C51.0745 12.6144 51.0095 12.3063 51.0095 11.9948C51.0095 11.6833 51.0745 11.3753 51.2002 11.0903C51.326 10.8053 51.5099 10.5497 51.74 10.3398C52.2901 9.92449 52.9607 9.6998 53.65 9.6998C54.3393 9.6998 55.0099 9.92449 55.56 10.3398C55.8049 10.5441 55.9998 10.8017 56.1298 11.0929C56.2598 11.3841 56.3214 11.7011 56.31 12.0198C56.3205 12.3311 56.2613 12.6408 56.1368 12.9263C56.0122 13.2118 55.8254 13.4658 55.59 13.6698H55.6Z" fill="white"/>
<path d="M65.13 3.70982C64.5307 5.06572 64.2404 6.53791 64.28 8.01982H67.89C67.8043 6.72306 68.0813 5.42805 68.69 4.27982C68.9242 3.90798 69.2488 3.60157 69.6336 3.3892C70.0183 3.17684 70.4506 3.06546 70.89 3.06546C71.3295 3.06546 71.7617 3.17684 72.1465 3.3892C72.5312 3.60157 72.8558 3.90798 73.09 4.27982C73.7098 5.42422 73.9908 6.72152 73.9 8.01982H77.48C77.5169 6.55208 77.2301 5.09423 76.64 3.74982C76.1366 2.63206 75.3204 1.6839 74.29 1.01982C73.261 0.398841 72.0819 0.0706482 70.88 0.0706482C69.6781 0.0706482 68.499 0.398841 67.47 1.01982C66.4484 1.67376 65.6362 2.60747 65.13 3.70982Z" fill="white"/>
<path d="M79.64 13.2598C80.2258 11.9246 80.5125 10.4775 80.48 9.01982H76.9C76.993 10.3183 76.7119 11.6162 76.09 12.7598C75.8558 13.1317 75.5312 13.4381 75.1465 13.6504C74.7617 13.8628 74.3294 13.9742 73.89 13.9742C73.4506 13.9742 73.0183 13.8628 72.6336 13.6504C72.2488 13.4381 71.9242 13.1317 71.69 12.7598C71.0768 11.6133 70.7995 10.3169 70.89 9.01982H67.28C67.2448 10.4917 67.5351 11.9531 68.13 13.2998C68.6347 14.4111 69.4466 15.3548 70.47 16.0198C71.499 16.6408 72.6781 16.969 73.88 16.969C75.0819 16.969 76.261 16.6408 77.29 16.0198C78.3249 15.3477 79.1415 14.3886 79.64 13.2598Z" fill="white"/>
<path d="M80.07 3.70982C79.4652 5.06397 79.1746 6.53743 79.22 8.01982H82.83C82.7443 6.72306 83.0213 5.42805 83.63 4.27982C83.8642 3.90798 84.1888 3.60157 84.5736 3.38921C84.9583 3.17684 85.3906 3.06546 85.83 3.06546C86.2695 3.06546 86.7017 3.17684 87.0865 3.38921C87.4712 3.60157 87.7958 3.90798 88.03 4.27982C88.6498 5.42422 88.9308 6.72152 88.84 8.01982H92.42C92.4594 6.55085 92.1689 5.09173 91.57 3.74982C91.0764 2.63675 90.2704 1.69087 89.2497 1.02695C88.229 0.363043 87.0376 0.00964355 85.82 0.00964355C84.6024 0.00964355 83.411 0.363043 82.3903 1.02695C81.3696 1.69087 80.5636 2.63675 80.07 3.74982V3.70982Z" fill="white"/>
<path d="M94.57 13.2598C95.1642 11.927 95.4546 10.4787 95.42 9.01982H91.84C91.9162 10.3078 91.6249 11.591 91 12.7198C90.7658 13.0917 90.4412 13.3981 90.0565 13.6104C89.6717 13.8228 89.2395 13.9342 88.8 13.9342C88.3606 13.9342 87.9283 13.8228 87.5436 13.6104C87.1588 13.3981 86.8342 13.0917 86.6 12.7198C86.0045 11.582 85.7379 10.3007 85.83 9.01982H82.22C82.1795 10.4921 82.4699 11.9547 83.07 13.2998C83.5636 14.4129 84.3696 15.3588 85.3903 16.0227C86.411 16.6866 87.6024 17.04 88.82 17.04C90.0376 17.04 91.229 16.6866 92.2497 16.0227C93.2704 15.3588 94.0764 14.4129 94.57 13.2998V13.2598Z" fill="white"/>
<path d="M104.17 1.01982C103.409 0.524166 102.55 0.1991 101.652 0.0669618C100.753 -0.0651766 99.8372 -0.00125456 98.9659 0.254335C98.0946 0.509925 97.289 0.951123 96.6044 1.54761C95.9198 2.1441 95.3725 2.88173 95 3.70982C94.3986 5.06477 94.1114 6.53819 94.16 8.01982H97.77C97.6767 6.72252 97.9542 5.42544 98.57 4.27982C98.7902 3.89423 99.1092 3.57425 99.4941 3.3528C99.879 3.13135 100.316 3.01642 100.76 3.01982C101.208 3.00656 101.651 3.11252 102.045 3.32688C102.439 3.54124 102.768 3.85629 103 4.23982C103.609 5.38806 103.886 6.68306 103.8 7.97982H107.39C107.429 6.51085 107.139 5.05173 106.54 3.70982C106.029 2.6016 105.205 1.66671 104.17 1.01982Z" fill="white"/>
<path d="M106 12.7198C105.766 13.0917 105.441 13.3981 105.056 13.6104C104.672 13.8228 104.239 13.9342 103.8 13.9342C103.361 13.9342 102.928 13.8228 102.544 13.6104C102.159 13.3981 101.834 13.0917 101.6 12.7198C100.982 11.575 100.704 10.2773 100.8 8.97983H97.16C97.1163 10.4514 97.4034 11.914 98 13.2598C98.4936 14.3729 99.2996 15.3188 100.32 15.9827C101.341 16.6466 102.532 17 103.75 17C104.968 17 106.159 16.6466 107.18 15.9827C108.2 15.3188 109.006 14.3729 109.5 13.2598C110.098 11.9278 110.391 10.4795 110.36 9.01983H106.77C106.867 10.3011 106.6 11.5837 106 12.7198Z" fill="white"/>
</svg>
