<svg width="77" height="17" viewBox="0 0 77 17" fill="none" xmlns="http://www.w3.org/2000/svg">
<path d="M14.1035 16.9336C14.8648 16.933 15.6234 16.8424 16.3635 16.6636H11.8835C12.6101 16.8412 13.3554 16.9319 14.1035 16.9336Z" fill="white"/>
<path d="M12.4935 7.37357V5.52357H6.92345C7.32522 4.76196 7.93573 4.13063 8.68345 3.70357C9.47176 3.24154 10.3697 2.99978 11.2835 3.00357C12.0247 2.99646 12.7583 3.15428 13.4311 3.46559C14.1039 3.77691 14.699 4.23393 15.1735 4.80357L17.4435 2.69357C16.705 1.82407 15.7736 1.13918 14.7235 0.693569C13.5773 0.216343 12.3448 -0.0185808 11.1035 0.00356872C9.88689 -0.00568247 8.68048 0.225405 7.55345 0.683569C6.49498 1.11716 5.5456 1.77967 4.77345 2.62357C4.00666 3.44968 3.44187 4.44234 3.12345 5.52357H0.633453V7.37357H2.79345C2.78168 7.52668 2.78168 7.68046 2.79345 7.83357H6.35345C6.35345 7.64357 6.35345 7.48357 6.35345 7.37357H12.4935Z" fill="white"/>
<path d="M20.4435 14.1836L18.1735 12.0736C17.701 12.6469 17.1067 13.1077 16.4338 13.4225C15.7609 13.7373 15.0263 13.8982 14.2835 13.8936C13.3734 13.9095 12.4757 13.6816 11.6835 13.2336C10.9357 12.8065 10.3252 12.1752 9.92345 11.4136H15.4935V9.56357H9.37345C9.37345 9.43357 9.37345 9.23357 9.37345 8.96357V8.83357H5.77345C5.77345 8.88357 5.77345 8.91357 5.77345 8.96357C5.75958 9.16333 5.75958 9.36381 5.77345 9.56357H3.63345V11.4136H6.12345C6.4442 12.4938 7.0087 13.486 7.77345 14.3136C8.5456 15.1575 9.49498 15.82 10.5535 16.2536C10.9849 16.4262 11.4297 16.5633 11.8835 16.6636H16.3635C16.8294 16.5593 17.2847 16.412 17.7235 16.2236C18.7792 15.7691 19.7116 15.0698 20.4435 14.1836Z" fill="white"/>
<path d="M30.9235 0.263565H18.5835V5.68357H21.7535V3.17357H26.8535L24.7935 7.83356H28.6335L30.9235 2.57357V0.263565Z" fill="white"/>
<path d="M27.7935 8.83357L24.3335 16.6636H28.2035L31.6335 8.83357H27.7935Z" fill="white"/>
<path d="M40.3735 16.9336C41.1482 16.9372 41.9206 16.8465 42.6735 16.6636H37.9835C38.7691 16.8334 39.5698 16.9238 40.3735 16.9336Z" fill="white"/>
<path d="M37.4135 6.05357H36.1635L36.4035 3.12356H42.8335V0.263565H33.4335L32.7435 7.83356H42.7435C42.5971 7.66379 42.4401 7.50347 42.2735 7.35357C40.8561 6.36361 39.1358 5.90345 37.4135 6.05357Z" fill="white"/>
<path d="M46.0734 14.3936C46.5426 13.6192 46.7851 12.7289 46.7734 11.8236C46.8071 10.7228 46.4211 9.65032 45.6935 8.82358H35.6935L35.6334 9.93358H39.6334C40.5888 9.85757 41.5473 10.0334 42.4134 10.4436C42.6696 10.5958 42.8794 10.815 43.0203 11.0775C43.1613 11.34 43.228 11.636 43.2135 11.9336C43.2251 12.226 43.1602 12.5163 43.0251 12.7759C42.8901 13.0355 42.6896 13.2553 42.4435 13.4136C41.8096 13.7989 41.0741 13.9836 40.3335 13.9436C39.5354 13.9461 38.7421 13.8212 37.9834 13.5736C37.2653 13.3552 36.5891 13.0171 35.9834 12.5736L34.5835 15.3036C35.393 15.8672 36.2975 16.2804 37.2534 16.5236C37.5234 16.5936 37.7934 16.6336 38.0634 16.6836H42.6334C43.0632 16.586 43.482 16.4453 43.8834 16.2636C44.781 15.8685 45.5426 15.2182 46.0734 14.3936Z" fill="white"/>
<path d="M54.8234 16.9336C55.4634 16.938 56.1004 16.847 56.7135 16.6636H52.9435C53.5533 16.8461 54.1869 16.9371 54.8234 16.9336Z" fill="white"/>
<path d="M55.2335 1.00357C54.2044 0.382591 53.0253 0.0543976 51.8235 0.0543976C50.6216 0.0543976 49.4425 0.382591 48.4135 1.00357C47.3845 1.67093 46.5715 2.62283 46.0735 3.74357C45.4937 5.0454 45.2069 6.4587 45.2335 7.88357H48.8435C48.7569 6.61352 49.0308 5.34485 49.6335 4.22357C49.8677 3.85173 50.1923 3.54531 50.577 3.33295C50.9617 3.12059 51.394 3.00921 51.8335 3.00921C52.2729 3.00921 52.7052 3.12059 53.0899 3.33295C53.4746 3.54531 53.7993 3.85173 54.0335 4.22357C54.6309 5.32898 54.908 6.57923 54.8335 7.83357H58.4235C58.461 6.41281 58.1915 5.00068 57.6335 3.69357C57.1101 2.58387 56.2765 1.64955 55.2335 1.00357Z" fill="white"/>
<path d="M60.6334 13.2436C61.2021 11.9045 61.4717 10.4575 61.4235 9.00357V8.83357H57.8335C57.8335 8.88357 57.8335 8.92357 57.8335 8.96357C57.9265 10.262 57.6454 11.5599 57.0234 12.7036C56.7892 13.0754 56.4646 13.3818 56.0799 13.5942C55.6952 13.8065 55.2629 13.9179 54.8234 13.9179C54.384 13.9179 53.9517 13.8065 53.567 13.5942C53.1823 13.3818 52.8577 13.0754 52.6235 12.7036C52.021 11.5678 51.7474 10.2864 51.8335 9.00357C51.8335 9.00357 51.8335 8.92357 51.8335 8.87357H48.2334C48.2334 8.92357 48.2334 8.96357 48.2334 9.00357C48.1983 10.4754 48.4885 11.9369 49.0835 13.2836C49.5854 14.3935 50.3937 15.3371 51.4134 16.0036C51.888 16.3028 52.4033 16.5318 52.9435 16.6836H56.7135C57.2511 16.5336 57.7634 16.3045 58.2334 16.0036C59.2868 15.3389 60.1215 14.379 60.6334 13.2436Z" fill="white"/>
<path d="M69.7635 16.9336C70.3967 16.936 71.0268 16.845 71.6335 16.6636H67.8735C68.4867 16.8463 69.1236 16.9372 69.7635 16.9336Z" fill="white"/>
<path d="M70.1735 1.00358C69.4098 0.511216 68.5486 0.190138 67.649 0.0624359C66.7494 -0.0652659 65.8329 0.00344014 64.9624 0.263827C64.0919 0.524213 63.2881 0.970098 62.6064 1.5708C61.9248 2.1715 61.3813 2.91276 61.0135 3.74358C60.4337 5.04541 60.1469 6.45871 60.1735 7.88358H63.7735C63.7036 6.62962 63.9804 5.38065 64.5735 4.27358C64.8077 3.90174 65.1323 3.59533 65.517 3.38296C65.9017 3.1706 66.334 3.05922 66.7735 3.05922C67.2129 3.05922 67.6452 3.1706 68.0299 3.38296C68.4146 3.59533 68.7393 3.90174 68.9735 4.27358C69.5665 5.38065 69.8433 6.62962 69.7735 7.88358H73.3635C73.3821 6.45842 73.0921 5.04611 72.5135 3.74358C72.0183 2.62097 71.2048 1.66829 70.1735 1.00358Z" fill="white"/>
<path d="M75.5135 13.2436C76.1096 11.9114 76.4 10.4626 76.3635 9.00357V8.83357H72.7735C72.7735 8.88357 72.7735 8.92357 72.7735 8.96357C72.8665 10.262 72.5854 11.5599 71.9635 12.7036C71.7293 13.0754 71.4046 13.3818 71.0199 13.5942C70.6352 13.8065 70.2029 13.9179 69.7635 13.9179C69.324 13.9179 68.8917 13.8065 68.507 13.5942C68.1223 13.3818 67.7977 13.0754 67.5635 12.7036C66.961 11.5678 66.6874 10.2864 66.7735 9.00357V8.83357H63.1735C63.1735 8.88357 63.1735 8.92357 63.1735 8.96357C63.1329 10.4359 63.4234 11.8985 64.0235 13.2436C64.5126 14.3722 65.3229 15.332 66.3535 16.0036C66.8254 16.301 67.3372 16.5299 67.8735 16.6836H71.6335C72.178 16.5355 72.6972 16.3063 73.1735 16.0036C74.2077 15.3335 75.0216 14.3735 75.5135 13.2436Z" fill="white"/>
</svg>
