<svg width="21" height="19" viewBox="0 0 21 19" fill="none" xmlns="http://www.w3.org/2000/svg">
<path d="M9.90234 5.34766L11.8008 5.83984C11.9062 5.875 12.0117 6.01562 12.0117 6.12109C12.0117 6.29688 11.8711 6.4375 11.6953 6.4375H10.4648C10.3594 6.4375 10.1836 6.40234 10.0781 6.33203C9.86719 6.26172 9.65625 6.29688 9.51562 6.40234L8.84766 7.03516C8.84766 7.07031 8.8125 7.10547 8.77734 7.14062C8.74219 7.17578 8.70703 7.28125 8.70703 7.35156C8.70703 7.45703 8.8125 7.59766 8.91797 7.66797C9.23438 7.87891 9.76172 8.05469 10.1133 8.08984V8.6875C10.1133 9.00391 10.3945 9.25 10.7461 9.25H11.3438C11.6953 9.25 11.9766 9.00391 11.9766 8.6875V8.08984C13.1016 7.94922 13.9805 7 13.8398 5.875C13.7344 5.06641 13.0664 4.43359 12.1875 4.1875L10.2891 3.69531C10.1836 3.66016 10.0781 3.51953 10.0781 3.41406C10.0781 3.23828 10.2188 3.09766 10.3945 3.09766H11.625C11.7305 3.09766 11.9414 3.13281 12.0469 3.20312C12.2227 3.27344 12.4336 3.23828 12.5742 3.13281L13.2422 2.5C13.2773 2.46484 13.2773 2.42969 13.3125 2.39453C13.3477 2.35938 13.3828 2.25391 13.3828 2.21875C13.3828 2.07812 13.2773 1.9375 13.1719 1.86719C12.8555 1.65625 12.3281 1.48047 11.9766 1.44531V0.8125C11.9766 0.53125 11.6953 0.25 11.3438 0.25H10.7461C10.3945 0.25 10.1484 0.53125 10.1484 0.8125V1.44531C8.98828 1.58594 8.10938 2.53516 8.25 3.66016C8.35547 4.46875 9.05859 5.10156 9.90234 5.34766ZM20.2383 11.8164C19.8164 11.4297 19.1836 11.4648 18.7266 11.8164L15.4922 14.3828C15.1406 14.6641 14.5078 14.875 14.0859 14.875H9.9375C9.62109 14.875 9.375 14.6289 9.375 14.3125C9.375 14.0312 9.62109 13.75 9.9375 13.75H12.6797C13.2422 13.75 13.7695 13.3984 13.8398 12.8359C13.8398 12.7656 13.875 12.6953 13.875 12.6602V12.625C13.8398 12.0273 13.3477 11.5 12.75 11.5H7.125C6.28125 11.5352 5.12109 11.9219 4.48828 12.4492L2.87109 13.75H0.9375C0.621094 13.75 0.375 14.0312 0.375 14.3125V17.6875C0.375 18.0039 0.621094 18.25 0.9375 18.25H13.4531C13.9102 18.25 14.543 18.0391 14.8594 17.7578L20.2031 13.5039C20.4141 13.3281 20.625 12.9414 20.625 12.6602C20.625 12.3789 20.4492 11.9922 20.2383 11.8164Z" fill="white"/>
</svg>
