<svg width="49" height="49" viewBox="0 0 49 49" fill="none" xmlns="http://www.w3.org/2000/svg">
<path d="M24.5 0.03125C11.1211 0.03125 0.28125 10.8711 0.28125 24.25C0.28125 37.6289 11.1211 48.4688 24.5 48.4688C37.8789 48.4688 48.7188 37.6289 48.7188 24.25C48.7188 10.8711 37.8789 0.03125 24.5 0.03125ZM13.5625 19.5625C13.5625 17.9023 14.9297 16.4375 16.6875 16.4375C18.3477 16.4375 19.8125 17.9023 19.8125 19.5625C19.8125 21.3203 18.3477 22.6875 16.6875 22.6875C14.9297 22.6875 13.5625 21.3203 13.5625 19.5625ZM24.5 39.875C20.9844 39.875 18.25 37.1406 18.25 33.625C18.25 30.207 20.9844 27.375 24.5 27.375C27.918 27.375 30.75 30.207 30.75 33.625C30.75 37.1406 27.918 39.875 24.5 39.875ZM32.3125 22.6875C30.5547 22.6875 29.1875 21.3203 29.1875 19.5625C29.1875 17.9023 30.5547 16.4375 32.3125 16.4375C33.9727 16.4375 35.4375 17.9023 35.4375 19.5625C35.4375 21.3203 33.9727 22.6875 32.3125 22.6875Z" fill="white"/>
</svg>
