<svg width="49" height="49" viewBox="0 0 49 49" fill="none" xmlns="http://www.w3.org/2000/svg">
<path d="M24.5 0.03125C11.1211 0.03125 0.28125 10.9688 0.28125 24.25C0.28125 37.6289 11.1211 48.4688 24.5 48.4688C37.7812 48.4688 48.7188 37.6289 48.7188 24.25C48.7188 10.9688 37.7812 0.03125 24.5 0.03125ZM32.5078 34.9922C32.1172 35.3828 31.7266 35.7734 31.3359 36.0664C31.043 36.3594 30.8477 36.75 30.75 37.1406C30.6523 37.7266 30.5547 38.2148 30.3594 38.8008L28.6016 43.3906C27.2344 43.6836 25.8672 43.7812 24.5 43.7812V41.1445C24.5977 39.875 23.7188 37.6289 22.2539 36.1641C21.668 35.5781 21.375 34.7969 21.375 33.918V30.793C21.375 29.7188 20.6914 28.6445 19.7148 28.0586C18.3477 27.2773 16.2969 26.2031 14.9297 25.5195C13.8555 24.9336 12.7812 24.25 11.9023 23.3711H11.8047C11.2188 22.8828 10.4375 21.9062 10.0469 21.3203C9.07031 19.9531 7.60547 17.8047 6.62891 16.3398C8.67969 11.8477 12.1953 8.33203 16.6875 6.37891L19.0312 7.55078C20.1055 8.03906 21.375 7.35547 21.375 6.18359V5.01172C22.0586 4.91406 22.9375 4.81641 23.7188 4.81641L26.4531 7.55078C27.0391 8.13672 27.0391 9.21094 26.4531 9.79688L26.0625 10.1875L24.9883 11.2617C24.6953 11.5547 24.6953 12.043 24.9883 12.3359L25.4766 12.8242C25.7695 13.1172 25.7695 13.6055 25.4766 13.8984L24.6953 14.6797C24.5977 14.7773 24.3047 14.875 24.1094 14.875H23.2305C23.0352 14.875 22.8398 14.9727 22.7422 15.168L21.7656 16.0469C21.5703 16.2422 21.4727 16.4375 21.4727 16.6328C21.4727 16.7305 21.5703 16.9258 21.5703 17.0234L23.1328 20.0508C23.3281 20.5391 23.0352 21.125 22.4492 21.125H21.8633C21.668 21.125 21.4727 21.125 21.375 21.0273L20.3984 20.1484C20.2031 19.9531 19.7148 19.8555 19.4219 19.8555C19.2266 19.8555 19.0312 19.8555 18.9336 19.8555L15.9062 20.9297C15.418 21.0273 15.125 21.5156 15.125 22.0039C15.125 22.4922 15.3203 22.8828 15.7109 23.0781L16.7852 23.5664C17.7617 24.0547 18.7383 24.25 19.8125 24.25C20.7891 24.25 21.9609 26.9844 22.9375 27.375H29.3828C30.2617 27.375 31.043 27.7656 31.6289 28.3516L32.9961 29.7188C33.4844 30.1094 33.875 31.0859 33.875 31.7695C33.875 32.8438 33.1914 34.3086 32.5078 34.9922ZM41.0039 26.1055C40.418 25.9102 39.9297 25.6172 39.5391 25.1289L37.7812 22.4922C37.5859 22.1016 37.3906 21.6133 37.3906 21.125C37.3906 20.7344 37.5859 20.2461 37.7812 19.8555L39.7344 17.0234C39.9297 16.6328 40.2227 16.4375 40.6133 16.2422L41.8828 15.5586C43.25 18.1953 44.0312 21.125 44.0312 24.25C44.0312 25.1289 43.9336 26.0078 43.8359 26.7891L41.0039 26.1055Z" fill="white"/>
</svg>
