<svg width="51" height="51" viewBox="0 0 51 51" fill="none" xmlns="http://www.w3.org/2000/svg">
<path d="M50.5 0.25C45.4219 0.640625 9.875 4.05859 7.43359 28.375C7.04297 31.0117 6.94531 33.6484 6.84766 36.1875L24.2305 18.8047C24.9141 18.1211 25.8906 18.1211 26.4766 18.8047C27.0625 19.3906 27.0625 20.3672 26.4766 20.9531L1.18359 46.3438C0.207031 47.2227 0.207031 48.6875 1.18359 49.5664C2.0625 50.543 3.52734 50.543 4.50391 49.5664L10.0703 44C14.1719 44 18.2734 43.8047 22.375 43.3164C27.5508 42.8281 31.8477 40.7773 35.2656 37.75H25.4023L39.7578 33.0625C40.832 31.5977 41.8086 30.0352 42.6875 28.375H34.7773L45.2266 23.1992C49.3281 13.2383 50.3047 2.88672 50.5 0.25Z" fill="white"/>
</svg>
