<svg width="192" height="28" viewBox="0 0 192 28" fill="none" xmlns="http://www.w3.org/2000/svg">
<path d="M21.4044 3.16641H3.87135C3.37302 3.17508 2.87756 3.10011 2.41328 2.94579C1.94899 2.79147 1.52499 2.56082 1.16548 2.26702C0.805968 1.97321 0.518 1.62201 0.318024 1.23347C0.118048 0.844938 0.00998239 0.42668 0 0.00259399L25.2758 0.00259399C25.2658 0.42668 25.1577 0.844938 24.9578 1.23347C24.7578 1.62201 24.4698 1.97321 24.1103 2.26702C23.7508 2.56082 23.3268 2.79147 22.8625 2.94579C22.3982 3.10011 21.9028 3.17508 21.4044 3.16641ZM10.2383 27.9487V11.2911C10.2383 8.72079 11.966 6.25944 15.0375 4.44065V27.9487H10.2383Z" fill="#E52529"/>
<path d="M55.9139 0.00259399C55.9139 1.48376 54.1798 2.68721 52.0745 2.68721H32.7945V25.226H51.9913C54.1606 25.226 55.9139 26.4458 55.9139 27.9487H28.872V0.00259399H55.9139ZM51.9337 13.5673H43.8967C40.4045 13.5817 37.0343 12.4753 34.4582 10.4688H51.9337V13.5673Z" fill="#E52529"/>
<path d="M75.4114 25.0517C76.6994 25.0585 77.9762 24.8475 79.1676 24.4309C80.2718 24.0575 81.2786 23.5023 82.1303 22.7973L82.4567 22.4923C83.1357 21.8373 83.9722 21.3141 84.9095 20.958C85.8467 20.602 86.863 20.4214 87.8894 20.4285H87.9597C87.7087 21.5225 87.2036 22.5628 86.474 23.4886C85.7444 24.4143 84.805 25.2068 83.7108 25.8195C81.2831 27.2841 78.3675 28.0475 75.3922 27.9977H63.0999L58.9342 25.0517H75.4114ZM69.4284 3.00845C68.4985 3.00023 67.5747 3.1368 66.7025 3.41141C65.8965 3.66223 65.1586 4.04938 64.5332 4.54951V4.54951C63.1444 5.62629 61.3246 6.2107 59.4461 6.18315H58.9342C59.4423 4.35693 60.7547 2.76636 62.6008 1.73965C64.605 0.56335 66.9944 -0.0445659 69.4284 0.00254532H83.826L87.9853 3.00845H69.4284ZM83.007 12.9791C85.7585 14.3695 87.4094 16.2373 87.9597 18.5825H83.6533C83.3569 17.7053 82.7992 16.9081 82.0343 16.2682C81.1853 15.5524 80.1696 14.9959 79.0524 14.6345C77.849 14.2366 76.5681 14.0352 75.2771 14.041H69.518C66.9642 14.0771 64.4608 13.4337 62.3576 12.2004C60.6309 11.2343 59.4056 9.74133 58.9342 8.02917H63.2407C63.7055 8.98489 64.538 9.77788 65.6019 10.2781C66.7849 10.8608 68.1321 11.1583 69.4988 11.1385H75.2579C77.997 11.093 80.6915 11.733 83.007 12.9791V12.9791Z" fill="#E52529"/>
<path d="M95.3441 0.00259399V16.0395C95.3441 18.4845 93.7124 20.8261 90.8201 22.5741V0.00259399H95.3441ZM117.868 27.9487H90.8137C90.7844 27.0498 91.1757 26.1778 91.9017 25.5243C92.6276 24.8708 93.6287 24.4893 94.685 24.4636H117.862L117.868 27.9487Z" fill="#E52529"/>
<path d="M136.816 0.00259399C137.52 1.26031 137.886 2.63611 137.886 4.02952C137.886 5.42292 137.52 6.79873 136.816 8.05644L125.937 27.9487H121.58L136.816 0.00259399ZM141.538 11.2747L150.561 27.9487H145.992L142.639 21.7845H131.242C132.202 20.0583 134.595 18.9202 137.27 18.9202H141.052L136.969 11.2965L141.538 11.2747Z" fill="#E52529"/>
<path d="M162.533 0.00259399H167.761L191.987 27.9487H186.849L162.533 0.00259399ZM162.597 27.9487L173.795 15.0539C174.584 15.8972 175.018 16.9409 175.028 18.0187C175.039 19.0964 174.625 20.1461 173.853 21.0003L167.825 27.9487H162.597ZM192 0.00259399L181.192 12.4673C180.442 11.6353 180.036 10.6161 180.036 9.56756C180.036 8.51906 180.442 7.49983 181.192 6.66785L187.022 0.00259399H192Z" fill="#1D1D1B"/>
</svg>
