<svg width="54" height="38" viewBox="0 0 54 38" fill="none" xmlns="http://www.w3.org/2000/svg">
<path d="M12.7508 0C5.70872 0 0 5.74988 0 12.8427C0 19.6617 5.20888 25.3328 11.8737 25.7534C11.5477 27.8797 9.60694 33.228 4.1828 37.9846C10.3895 38.3583 26.1762 32.0049 25.6365 12.8427C25.6365 5.74988 19.7929 0 12.7508 0Z" fill="#DFDFDF"/>
<path d="M41.1008 0C34.0587 0 28.35 5.74988 28.35 12.8427C28.35 19.6617 33.5589 25.3328 40.2237 25.7534C39.8977 27.8797 37.9569 33.228 32.5328 37.9846C38.7395 38.3583 54.5262 32.0049 53.9865 12.8427C53.9865 5.74988 48.1429 0 41.1008 0Z" fill="#DFDFDF"/>
</svg>
