<svg width="55" height="45" viewBox="0 0 55 45" fill="none" xmlns="http://www.w3.org/2000/svg">
<path d="M36.4103 17.8687L28.8812 25.3978C28.4303 25.278 27.9664 25.2143 27.4999 25.2083C26.0633 25.2083 24.6856 25.7789 23.6698 26.7948C22.6539 27.8106 22.0833 29.1883 22.0833 30.6249C22.0893 31.0914 22.153 31.5553 22.2728 32.0062L20.1603 34.1187C19.9065 34.3704 19.705 34.67 19.5675 35C19.43 35.3301 19.3592 35.6841 19.3592 36.0416C19.3592 36.3991 19.43 36.7531 19.5675 37.0831C19.705 37.4132 19.9065 37.7127 20.1603 37.9645C20.4121 38.2183 20.7117 38.4198 21.0417 38.5573C21.3717 38.6948 21.7257 38.7656 22.0833 38.7656C22.4408 38.7656 22.7948 38.6948 23.1248 38.5573C23.4548 38.4198 23.7544 38.2183 24.0062 37.9645L26.1187 35.852C26.5695 35.9719 27.0334 36.0355 27.4999 36.0416C28.9365 36.0416 30.3143 35.4709 31.3301 34.4551C32.3459 33.4393 32.9166 32.0615 32.9166 30.6249C32.9106 30.1584 32.8469 29.6945 32.727 29.2437L40.2562 21.7145C40.7662 21.2045 41.0527 20.5128 41.0527 19.7916C41.0527 19.0704 40.7662 18.3787 40.2562 17.8687C39.7462 17.3587 39.0545 17.0722 38.3333 17.0722C37.612 17.0722 36.9203 17.3587 36.4103 17.8687ZM27.4999 0.833252C23.9433 0.833252 20.4215 1.53378 17.1356 2.89485C13.8497 4.25591 10.864 6.25086 8.34911 8.76578C3.27 13.8449 0.416587 20.7336 0.416587 27.9166C0.403249 33.2806 1.9975 38.5256 4.99367 42.9749C5.39592 43.5711 6.01852 43.9831 6.72451 44.1202C7.43051 44.2573 8.16207 44.1084 8.75825 43.7062C9.35444 43.3039 9.76641 42.6813 9.90355 41.9753C10.0407 41.2693 9.89175 40.5378 9.4895 39.9416C7.30799 36.6795 6.05339 32.8862 5.85967 28.9667C5.66595 25.0471 6.54039 21.1486 8.38961 17.6873C10.2388 14.226 12.9934 11.3319 16.3592 9.31409C19.725 7.29626 23.5756 6.23044 27.4999 6.23044C31.4242 6.23044 35.2749 7.29626 38.6406 9.31409C42.0064 11.3319 44.761 14.226 46.6102 17.6873C48.4594 21.1486 49.3339 25.0471 49.1402 28.9667C48.9465 32.8862 47.6919 36.6795 45.5103 39.9416C45.3107 40.2366 45.1713 40.5682 45.1 40.9172C45.0287 41.2662 45.027 41.6259 45.0949 41.9756C45.1628 42.3253 45.2991 42.6581 45.4958 42.9551C45.6926 43.2521 45.946 43.5073 46.2416 43.7062C46.6899 44.0075 47.2181 44.1678 47.7583 44.1666C48.2019 44.1673 48.6389 44.0589 49.0308 43.8511C49.4228 43.6434 49.7577 43.3425 50.0062 42.9749C53.0023 38.5256 54.5966 33.2806 54.5833 27.9166C54.5833 20.7336 51.7298 13.8449 46.6507 8.76578C41.5716 3.68667 34.6829 0.833252 27.4999 0.833252Z" fill="white"/>
</svg>
