<svg width="133" height="28" viewBox="0 0 133 28" fill="none" xmlns="http://www.w3.org/2000/svg">
<path d="M19.32 11.0236H11.33V13.1836H19.32V11.0236Z" fill="#E52529"/>
<path d="M17.41 0.583569H8.7L0 13.1836H9.04L17.41 0.583569Z" fill="#E52529"/>
<path d="M16.33 15.8736H12.91L14.04 14.1836H5L3.01 17.0636V22.4636H16.08V26.7836H24.32V22.4636H27.67V15.8736H24.32V14.1836H16.33V15.8736Z" fill="#E52529"/>
<path d="M25.32 6.10357C24.2931 8.31914 23.7934 10.7425 23.86 13.1836H32.39C32.39 8.9369 33.35 6.81024 35.27 6.80357C37.19 6.7969 38.15 8.92357 38.15 13.1836H46.68C46.7467 10.7425 46.2469 8.31914 45.22 6.10357C44.3564 4.23615 42.9662 2.66166 41.22 1.57357C39.428 0.499743 37.3685 -0.0445963 35.28 0.00356894C33.2016 -0.0389184 31.1533 0.505215 29.37 1.57357C27.6053 2.65416 26.197 4.22938 25.32 6.10357Z" fill="#E52529"/>
<path d="M50.23 21.2536C51.2478 19.0389 51.7439 16.6201 51.68 14.1836H43.15C43.15 18.4236 42.15 20.5536 40.27 20.5536C38.39 20.5536 37.39 18.4236 37.39 14.1836H28.86C28.7992 16.6209 29.2987 19.0397 30.32 21.2536C31.1859 23.1221 32.5754 24.6992 34.32 25.7936C36.1062 26.8539 38.1531 27.3942 40.23 27.3536C42.3069 27.3942 44.3538 26.8539 46.14 25.7936C47.9145 24.7086 49.3355 23.1313 50.23 21.2536Z" fill="#E52529"/>
<path d="M50.23 6.10357C49.2076 8.32062 48.708 10.7429 48.77 13.1836H57.3C57.3 8.9369 58.26 6.81024 60.18 6.80357C62.1 6.7969 63.06 8.92357 63.06 13.1836H71.59C71.6551 10.7437 71.159 8.32143 70.14 6.10357C69.2725 4.2387 67.8831 2.66522 66.14 1.57357C64.3451 0.497912 62.2819 -0.0464958 60.19 0.00356894C58.1118 -0.0372968 56.0639 0.506719 54.28 1.57357C52.5153 2.65416 51.107 4.22938 50.23 6.10357Z" fill="#E52529"/>
<path d="M75.14 21.2536C76.1578 19.0389 76.6539 16.6201 76.59 14.1836H68.06C68.06 18.4236 67.06 20.5536 65.18 20.5536C63.3 20.5536 62.3 18.4236 62.3 14.1836H53.77C53.7092 16.6209 54.2087 19.0397 55.23 21.2536C56.0959 23.1221 57.4854 24.6992 59.23 25.7936C61.0166 26.8529 63.0633 27.3932 65.14 27.3536C67.2169 27.3942 69.2638 26.8539 71.05 25.7936C72.8245 24.7086 74.2455 23.1313 75.14 21.2536Z" fill="#E52529"/>
<path d="M75.14 6.10357C74.1175 8.32062 73.618 10.7429 73.68 13.1836H82.21C82.21 8.9369 83.17 6.81024 85.09 6.80357C87.01 6.7969 87.98 8.92357 88 13.1836H96.54C96.5926 10.7406 96.0828 8.31816 95.05 6.10357C94.1835 4.23806 92.7939 2.66434 91.05 1.57357C89.2538 0.500955 87.1915 -0.043217 85.1 0.00356894C83.0185 -0.0386401 80.967 0.505405 79.18 1.57357C77.4213 2.65838 76.0173 4.23269 75.14 6.10357Z" fill="#E52529"/>
<path d="M100.05 21.2536C101.071 19.0397 101.571 16.6209 101.51 14.1836H93C93 18.4236 92 20.5536 90.12 20.5536C88.24 20.5536 87.24 18.4236 87.24 14.1836H78.68C78.6192 16.6209 79.1187 19.0397 80.14 21.2536C81.0092 23.1199 82.398 24.6962 84.14 25.7936C85.9304 26.8528 87.9801 27.3929 90.06 27.3536C92.1466 27.3967 94.2038 26.8564 96 25.7936C97.7605 24.7036 99.1673 23.1266 100.05 21.2536Z" fill="#E52529"/>
<path d="M122.46 1.30357C120.398 0.406362 118.168 -0.0369951 115.92 0.00356894C112.97 -0.0613539 110.068 0.760785 107.59 2.36357C105.264 3.85191 103.503 6.0771 102.59 8.68357H98.59V12.6836H101.83V13.1536H110.4V12.6836H118.1V8.68357H112C112.549 8.08361 113.223 7.61147 113.975 7.30046C114.727 6.98944 115.537 6.84714 116.35 6.88357C117.44 6.911 118.509 7.19734 119.467 7.71896C120.425 8.24057 121.245 8.98252 121.86 9.88357L127.21 5.00357C125.965 3.38878 124.33 2.11584 122.46 1.30357Z" fill="#E52529"/>
<path d="M121.34 20.4836C120.527 20.52 119.717 20.3777 118.965 20.0667C118.213 19.7557 117.539 19.2835 116.99 18.6836H123.14V14.6836H115.44V14.2236H106.87V14.6836H103.63V18.6836H107.63C108.544 21.2871 110.304 23.5089 112.63 24.9936C115.108 26.5964 118.01 27.4185 120.96 27.3536C123.207 27.3923 125.436 26.9526 127.5 26.0636C129.374 25.2331 131.007 23.9433 132.25 22.3136L126.89 17.5236C126.266 18.4221 125.438 19.1591 124.472 19.6739C123.507 20.1886 122.434 20.4661 121.34 20.4836Z" fill="#E52529"/>
</svg>
