<svg width="93" height="18" viewBox="0 0 93 18" fill="none" xmlns="http://www.w3.org/2000/svg">
<path d="M2.13 8.01022H5.72C5.72 7.75022 5.72 7.55022 5.72 7.42022H11.84V5.53022H6.29C6.69177 4.76861 7.30228 4.13728 8.05 3.71022C8.83831 3.24819 9.73627 3.00643 10.65 3.01022C11.3913 3.00311 12.1249 3.16093 12.7977 3.47225C13.4704 3.78356 14.0656 4.24058 14.54 4.81022L16.81 2.70022C16.0716 1.83072 15.1401 1.14584 14.09 0.700222C12.9438 0.222996 11.7113 -0.011928 10.47 0.0102215C9.25344 0.000970361 8.04703 0.232058 6.92 0.690222C5.86152 1.12381 4.91215 1.78632 4.14 2.63022C3.37321 3.45633 2.80841 4.449 2.49 5.53022H0V7.38022H2.16C2.13448 7.58919 2.12446 7.79977 2.13 8.01022Z" fill="white"/>
<path d="M19.81 14.1902L17.54 12.0802C17.0675 12.6535 16.4733 13.1143 15.8004 13.4291C15.1275 13.744 14.3929 13.9049 13.65 13.9002C12.74 13.9162 11.8422 13.6883 11.05 13.2402C10.3023 12.8132 9.69177 12.1818 9.29 11.4202H14.86V9.57022H8.74C8.74 9.44022 8.74 9.24022 8.74 8.97021H5.13C5.11613 9.16997 5.11613 9.37046 5.13 9.57022H3V11.4202H5.49C5.81075 12.5004 6.37525 13.4926 7.14 14.3202C7.91215 15.1641 8.86152 15.8266 9.92 16.2602C11.047 16.7184 12.2534 16.9495 13.47 16.9402C14.7127 16.956 15.9453 16.7143 17.09 16.2302C18.1457 15.7758 19.0781 15.0765 19.81 14.1902Z" fill="white"/>
<path d="M30.29 0.270264H17.95V5.69026H21.12V3.18026H26.2199L24.11 7.97026H27.94L30.29 2.58026V0.270264Z" fill="white"/>
<path d="M23.7 16.6702H27.57L30.94 8.97021H27.11L23.7 16.6702Z" fill="white"/>
<path d="M32.71 2.08022C32.2206 2.75624 31.9708 3.57619 32 4.41022C31.9871 5.05353 32.1458 5.68867 32.46 6.25022C32.7827 6.79627 33.2364 7.25335 33.78 7.58022C33.5423 7.70535 33.3149 7.84913 33.1 8.01022H42.7C42.4767 7.85106 42.2429 7.70739 42 7.58022C42.5672 7.26967 43.0391 6.8105 43.365 6.25201C43.6909 5.69352 43.8586 5.0568 43.85 4.41022C43.8669 3.57164 43.6029 2.75149 43.1 2.08022C42.5543 1.38648 41.8276 0.857001 41 0.550219C40.0037 0.173823 38.9448 -0.00943982 37.88 0.0102185C36.8282 -0.00851624 35.7826 0.1748 34.8 0.550219C33.9765 0.859519 33.2536 1.38871 32.71 2.08022ZM36.16 3.14022C36.6581 2.77841 37.2652 2.59839 37.88 2.63022C38.5073 2.59722 39.1275 2.77692 39.64 3.14022C39.8551 3.30724 40.0273 3.52324 40.1421 3.77023C40.2569 4.01723 40.311 4.28807 40.3 4.56022C40.3103 4.82797 40.2557 5.09425 40.1408 5.33631C40.0258 5.57836 39.854 5.789 39.64 5.95022C39.1275 6.31352 38.5073 6.49322 37.88 6.46022C37.2617 6.4952 36.6504 6.31499 36.15 5.95022C35.9402 5.7863 35.7727 5.57463 35.6614 5.33284C35.5501 5.09105 35.4982 4.82615 35.51 4.56022C35.4978 4.28892 35.5504 4.01861 35.6634 3.77168C35.7764 3.52475 35.9467 3.30829 36.16 3.14022Z" fill="white"/>
<path d="M46.58 14.7103C47.124 13.9914 47.4125 13.1116 47.4 12.2103C47.4112 11.4525 47.199 10.7082 46.79 10.0703C46.4913 9.65608 46.1224 9.29734 45.7 9.01025H36.1C35.6734 9.2956 35.301 9.65452 35 10.0703C34.594 10.7091 34.3853 11.4534 34.4 12.2103C34.3779 13.1098 34.6597 13.9906 35.2 14.7103C35.7823 15.4605 36.5662 16.0293 37.46 16.3503C39.6618 17.137 42.0682 17.137 44.27 16.3503C45.1799 16.0337 45.9811 15.4649 46.58 14.7103ZM43.01 13.7103C42.3765 14.1036 41.6457 14.312 40.9 14.312C40.1543 14.312 39.4235 14.1036 38.79 13.7103C38.5421 13.5219 38.3416 13.2783 38.2044 12.9988C38.0673 12.7193 37.9973 12.4116 38 12.1003C37.9901 11.7899 38.0549 11.4816 38.1889 11.2015C38.3229 10.9213 38.5222 10.6774 38.77 10.4903C39.3831 10.0697 40.1175 9.86242 40.86 9.90025C41.6153 9.86024 42.363 10.0674 42.99 10.4903C43.2409 10.6751 43.4431 10.9184 43.579 11.1989C43.7149 11.4794 43.7804 11.7887 43.77 12.1003C43.7766 12.4116 43.7105 12.7202 43.5768 13.0014C43.4431 13.2827 43.2456 13.5288 43 13.7203L43.01 13.7103Z" fill="white"/>
<path d="M46.87 3.7002C46.2638 5.05453 45.9666 6.52678 46 8.0102H49.61C49.5243 6.71345 49.8013 5.41844 50.41 4.2702C50.6442 3.89836 50.9688 3.59195 51.3535 3.37959C51.7382 3.16723 52.1705 3.05584 52.61 3.05584C53.0494 3.05584 53.4817 3.16723 53.8664 3.37959C54.2511 3.59195 54.5758 3.89836 54.81 4.2702C55.4367 5.41256 55.7246 6.70997 55.64 8.0102H59.22C59.2568 6.54246 58.97 5.08461 58.38 3.7402C57.8685 2.61846 57.0415 1.66987 56 1.0102C54.9709 0.389228 53.7919 0.0610352 52.59 0.0610352C51.3881 0.0610352 50.209 0.389228 49.18 1.0102C48.172 1.67142 47.3713 2.60388 46.87 3.7002Z" fill="white"/>
<path d="M61.3801 13.2503C61.9658 11.9151 62.2525 10.4679 62.2201 9.01025H58.64C58.7331 10.3087 58.452 11.6066 57.8301 12.7503C57.5959 13.1221 57.2712 13.4285 56.8865 13.6409C56.5018 13.8532 56.0695 13.9646 55.6301 13.9646C55.1906 13.9646 54.7583 13.8532 54.3736 13.6409C53.9889 13.4285 53.6642 13.1221 53.43 12.7503C52.8168 11.6037 52.5395 10.3074 52.6301 9.01025H49C48.9649 10.4821 49.2551 11.9436 49.85 13.2903C50.3602 14.4041 51.1793 15.3482 52.21 16.0103C53.2356 16.6254 54.4091 16.9504 55.605 16.9504C56.801 16.9504 57.9745 16.6254 59 16.0103C60.046 15.3426 60.8734 14.383 61.3801 13.2503Z" fill="white"/>
<path d="M61.81 3.70018C61.2189 5.05752 60.942 6.53084 61 8.01018H64.61C64.5243 6.71342 64.8013 5.41841 65.41 4.27018C65.6442 3.89834 65.9688 3.59193 66.3535 3.37956C66.7383 3.1672 67.1705 3.05582 67.61 3.05582C68.0494 3.05582 68.4817 3.1672 68.8664 3.37956C69.2512 3.59193 69.5758 3.89834 69.81 4.27018C70.4159 5.41866 70.683 6.71573 70.58 8.01018H74.16C74.1994 6.5412 73.9089 5.08208 73.31 3.74018C72.8164 2.62711 72.0104 1.68122 70.9897 1.01731C69.969 0.353399 68.7776 0 67.56 0C66.3424 0 65.1509 0.353399 64.1303 1.01731C63.1096 1.68122 62.3036 2.62711 61.81 3.74018V3.70018Z" fill="white"/>
<path d="M76.3099 13.2503C76.9042 11.9174 77.1945 10.4691 77.16 9.01025H73.5799C73.673 10.3087 73.3919 11.6066 72.7699 12.7503C72.5357 13.1221 72.2111 13.4285 71.8264 13.6409C71.4417 13.8532 71.0094 13.9646 70.5699 13.9646C70.1305 13.9646 69.6982 13.8532 69.3135 13.6409C68.9288 13.4285 68.6041 13.1221 68.3699 12.7503C67.7567 11.6037 67.4794 10.3074 67.5699 9.01025H63.9999C63.9594 10.4826 64.2499 11.9452 64.8499 13.2903C65.3435 14.4033 66.1496 15.3492 67.1702 16.0131C68.1909 16.677 69.3823 17.0304 70.5999 17.0304C71.8175 17.0304 73.009 16.677 74.0296 16.0131C75.0503 15.3492 75.8564 14.4033 76.3499 13.2903L76.3099 13.2503Z" fill="white"/>
<path d="M85.91 1.01017C85.1464 0.517807 84.2851 0.19673 83.3856 0.0690277C82.486 -0.0586741 81.5694 0.0100319 80.6989 0.270418C79.8284 0.530805 79.0247 0.97669 78.343 1.57739C77.6613 2.1781 77.1178 2.91936 76.75 3.75017C76.1525 5.08901 75.8621 6.54455 75.9 8.01017H79.51C79.4167 6.71287 79.6942 5.41579 80.31 4.27017C80.5303 3.88457 80.8492 3.5646 81.2341 3.34315C81.619 3.1217 82.056 3.00677 82.5 3.01017C82.942 3.0012 83.3786 3.1082 83.7663 3.32049C84.1541 3.53279 84.4795 3.84298 84.71 4.22017C85.3279 5.3831 85.6051 6.69674 85.51 8.01017H89.1C89.1394 6.54119 88.849 5.08208 88.25 3.74017C87.7533 2.62124 86.9398 1.67221 85.91 1.01017Z" fill="white"/>
<path d="M87.71 12.7103C87.4758 13.0821 87.1511 13.3885 86.7664 13.6009C86.3817 13.8132 85.9494 13.9246 85.51 13.9246C85.0705 13.9246 84.6382 13.8132 84.2535 13.6009C83.8688 13.3885 83.5442 13.0821 83.31 12.7103C82.6995 11.5771 82.4221 10.2944 82.51 9.01025H78.9C78.8594 10.4826 79.1499 11.9452 79.75 13.2903C80.2436 14.4033 81.0496 15.3492 82.0703 16.0131C83.0909 16.677 84.2824 17.0304 85.5 17.0304C86.7176 17.0304 87.909 16.677 88.9297 16.0131C89.9503 15.3492 90.7564 14.4033 91.25 13.2903C91.8501 11.9452 92.1405 10.4826 92.1 9.01025H88.51C88.5929 10.294 88.3158 11.5754 87.71 12.7103Z" fill="white"/>
</svg>
