<svg width="29" height="26" viewBox="0 0 29 26" fill="none" xmlns="http://www.w3.org/2000/svg">
<path d="M12.575 5.49987L13.25 4.76237V9.24987C13.25 9.58139 13.3817 9.89933 13.6161 10.1338C13.8505 10.3682 14.1685 10.4999 14.5 10.4999C14.8315 10.4999 15.1495 10.3682 15.3839 10.1338C15.6183 9.89933 15.75 9.58139 15.75 9.24987V4.76237L16.425 5.44987C16.5385 5.57802 16.677 5.68151 16.8321 5.75391C16.9872 5.82631 17.1556 5.86609 17.3267 5.87078C17.4978 5.87547 17.668 5.84496 17.8268 5.78116C17.9857 5.71736 18.1297 5.62162 18.25 5.49987C18.3672 5.38367 18.4602 5.24542 18.5236 5.09309C18.5871 4.94077 18.6197 4.77739 18.6197 4.61237C18.6197 4.44736 18.5871 4.28397 18.5236 4.13165C18.4602 3.97933 18.3672 3.84107 18.25 3.72487L15.3875 0.86237C15.2686 0.74857 15.1284 0.659363 14.975 0.59987C14.6707 0.474848 14.3293 0.474848 14.025 0.59987C13.8716 0.659363 13.7314 0.74857 13.6125 0.86237L10.75 3.67487C10.508 3.91688 10.372 4.24512 10.372 4.58737C10.372 4.92962 10.508 5.25786 10.75 5.49987C10.992 5.74188 11.3202 5.87784 11.6625 5.87784C12.0048 5.87784 12.333 5.74188 12.575 5.49987ZM14.5 12.9999C13.7583 12.9999 13.0333 13.2198 12.4166 13.6319C11.7999 14.0439 11.3193 14.6296 11.0354 15.3148C10.7516 16 10.6774 16.754 10.8221 17.4815C10.9667 18.2089 11.3239 18.8771 11.8483 19.4015C12.3728 19.926 13.041 20.2831 13.7684 20.4278C14.4958 20.5725 15.2498 20.4982 15.9351 20.2144C16.6203 19.9306 17.206 19.4499 17.618 18.8333C18.0301 18.2166 18.25 17.4916 18.25 16.7499C18.25 15.7553 17.8549 14.8015 17.1516 14.0982C16.4484 13.395 15.4946 12.9999 14.5 12.9999ZM14.5 17.9999C14.2528 17.9999 14.0111 17.9266 13.8055 17.7892C13.6 17.6519 13.4398 17.4566 13.3451 17.2282C13.2505 16.9998 13.2258 16.7485 13.274 16.506C13.3222 16.2635 13.4413 16.0408 13.6161 15.866C13.7909 15.6912 14.0137 15.5721 14.2561 15.5239C14.4986 15.4757 14.7499 15.5004 14.9784 15.595C15.2068 15.6896 15.402 15.8498 15.5393 16.0554C15.6767 16.261 15.75 16.5026 15.75 16.7499C15.75 17.0814 15.6183 17.3993 15.3839 17.6338C15.1495 17.8682 14.8315 17.9999 14.5 17.9999ZM5.75 16.7499C5.75 16.9971 5.82331 17.2388 5.96066 17.4443C6.09801 17.6499 6.29324 17.8101 6.52165 17.9047C6.75005 17.9993 7.00139 18.0241 7.24386 17.9759C7.48634 17.9276 7.70907 17.8086 7.88388 17.6338C8.0587 17.4589 8.17775 17.2362 8.22598 16.9937C8.27421 16.7513 8.24946 16.4999 8.15485 16.2715C8.06024 16.0431 7.90002 15.8479 7.69446 15.7105C7.4889 15.5732 7.24723 15.4999 7 15.4999C6.66848 15.4999 6.35054 15.6316 6.11612 15.866C5.8817 16.1004 5.75 16.4183 5.75 16.7499ZM23.25 16.7499C23.25 16.5026 23.1767 16.261 23.0393 16.0554C22.902 15.8498 22.7068 15.6896 22.4784 15.595C22.2499 15.5004 21.9986 15.4757 21.7561 15.5239C21.5137 15.5721 21.2909 15.6912 21.1161 15.866C20.9413 16.0408 20.8222 16.2635 20.774 16.506C20.7258 16.7485 20.7505 16.9998 20.8451 17.2282C20.9398 17.4566 21.1 17.6519 21.3055 17.7892C21.5111 17.9266 21.7528 17.9999 22 17.9999C22.3315 17.9999 22.6495 17.8682 22.8839 17.6338C23.1183 17.3993 23.25 17.0814 23.25 16.7499ZM24.5 7.99987H19.5C19.1685 7.99987 18.8505 8.13157 18.6161 8.36599C18.3817 8.60041 18.25 8.91835 18.25 9.24987C18.25 9.58139 18.3817 9.89933 18.6161 10.1338C18.8505 10.3682 19.1685 10.4999 19.5 10.4999H24.5C24.8315 10.4999 25.1495 10.6316 25.3839 10.866C25.6183 11.1004 25.75 11.4183 25.75 11.7499V21.7499C25.75 22.0814 25.6183 22.3993 25.3839 22.6338C25.1495 22.8682 24.8315 22.9999 24.5 22.9999H4.5C4.16848 22.9999 3.85054 22.8682 3.61612 22.6338C3.3817 22.3993 3.25 22.0814 3.25 21.7499V11.7499C3.25 11.4183 3.3817 11.1004 3.61612 10.866C3.85054 10.6316 4.16848 10.4999 4.5 10.4999H9.5C9.83152 10.4999 10.1495 10.3682 10.3839 10.1338C10.6183 9.89933 10.75 9.58139 10.75 9.24987C10.75 8.91835 10.6183 8.60041 10.3839 8.36599C10.1495 8.13157 9.83152 7.99987 9.5 7.99987H4.5C3.50544 7.99987 2.55161 8.39496 1.84835 9.09822C1.14509 9.80148 0.75 10.7553 0.75 11.7499V21.7499C0.75 22.7444 1.14509 23.6983 1.84835 24.4015C2.55161 25.1048 3.50544 25.4999 4.5 25.4999H24.5C25.4946 25.4999 26.4484 25.1048 27.1516 24.4015C27.8549 23.6983 28.25 22.7444 28.25 21.7499V11.7499C28.25 10.7553 27.8549 9.80148 27.1516 9.09822C26.4484 8.39496 25.4946 7.99987 24.5 7.99987Z" fill="white"/>
</svg>
