<svg width="45" height="54" viewBox="0 0 45 54" fill="none" xmlns="http://www.w3.org/2000/svg">
<path d="M37.5798 28.5649C37.5798 24.1054 39.6144 20.8512 43.5638 18.3201C41.2899 15.0659 37.9388 13.3785 33.5106 13.0169C29.2021 12.6553 24.5346 15.4274 22.859 15.4274C21.0638 15.4274 16.9947 13.1374 13.7633 13.1374C7.06117 13.258 0 18.4406 0 29.1675C0 32.3012 0.478723 35.5554 1.67553 38.9302C3.23138 43.3897 8.7367 54.2371 14.4814 53.996C17.4734 53.996 19.6277 51.8266 23.5771 51.8266C27.4069 51.8266 29.3218 53.996 32.6729 53.996C38.5372 53.996 43.5638 44.1128 45 39.6533C37.2207 35.917 37.5798 28.8059 37.5798 28.5649ZM30.8777 8.79846C34.109 4.9416 33.75 1.3258 33.75 0C30.8777 0.241054 27.5266 2.04896 25.6117 4.21844C23.4574 6.62898 22.2606 9.64215 22.5 12.8964C25.6117 13.1374 28.484 11.5706 30.8777 8.79846Z" fill="black"/>
</svg>
