<svg width="48" height="54" viewBox="0 0 48 54" fill="none" xmlns="http://www.w3.org/2000/svg">
<path fill-rule="evenodd" clip-rule="evenodd" d="M0.946906 0.82808C0.345607 1.48049 0 2.48464 0 3.78947V50.2017C0 51.5065 0.345607 52.5106 0.969385 53.1404L1.13235 53.2794L26.8927 27.2736V26.6892L1.10988 0.689087L0.946906 0.82808Z" fill="url(#paint0_linear)"/>
<path fill-rule="evenodd" clip-rule="evenodd" d="M35.4626 35.9761L26.8702 27.299V26.692L35.4654 18.0149L35.6509 18.1312L45.8168 23.9632C48.7278 25.6198 48.7278 28.3486 45.8168 30.0278L35.6509 35.8598C35.6481 35.8598 35.4626 35.9761 35.4626 35.9761Z" fill="url(#paint1_linear)"/>
<path fill-rule="evenodd" clip-rule="evenodd" d="M35.6481 35.8599L26.8702 26.9956L0.946899 53.1659C1.89381 54.1928 3.48697 54.3091 5.26839 53.3049L35.6481 35.8599Z" fill="url(#paint2_linear)"/>
<path fill-rule="evenodd" clip-rule="evenodd" d="M35.6481 18.134L5.26839 0.711721C3.48978 -0.315122 1.89381 -0.176129 0.946899 0.850714L26.8674 26.9955L35.6481 18.134Z" fill="url(#paint3_linear)"/>
<path opacity="0.2" fill-rule="evenodd" clip-rule="evenodd" d="M35.4626 35.6726L5.29085 52.9786C3.60496 53.9572 2.10171 53.8892 1.13233 53.0013L0.96936 53.1658L1.13233 53.3048C2.10171 54.1898 3.60496 54.2607 5.29085 53.2821L35.6705 35.8598L35.4626 35.6726Z" fill="black"/>
<path opacity="0.12" fill-rule="evenodd" clip-rule="evenodd" d="M45.814 29.7244L35.4402 35.6727L35.6256 35.8599L45.7915 30.0279C47.247 29.1883 47.9635 28.0934 47.9635 26.9956C47.8708 27.9998 47.1318 28.9557 45.814 29.7244Z" fill="black"/>
<path opacity="0.25" fill-rule="evenodd" clip-rule="evenodd" d="M5.2684 1.01526L45.814 24.2696C47.1318 25.0156 47.8707 25.9942 47.986 26.9984C47.986 25.9034 47.2694 24.8057 45.814 23.9661L5.2684 0.711748C2.35743 -0.96751 0 0.430926 0 3.78944V4.09296C0 0.73444 2.35743 -0.641303 5.2684 1.01526Z" fill="white"/>
<defs>
<linearGradient id="paint0_linear" x1="24.5645" y1="3.30513" x2="-16.7089" y2="14.1935" gradientUnits="userSpaceOnUse">
<stop stop-color="#00A0FF"/>
<stop offset="0.007" stop-color="#00A1FF"/>
<stop offset="0.26" stop-color="#00BEFF"/>
<stop offset="0.512" stop-color="#00D2FF"/>
<stop offset="0.76" stop-color="#00DFFF"/>
<stop offset="1" stop-color="#00E3FF"/>
</linearGradient>
<linearGradient id="paint1_linear" x1="49.6045" y1="26.9881" x2="-0.707687" y2="26.9881" gradientUnits="userSpaceOnUse">
<stop stop-color="#FFE000"/>
<stop offset="0.409" stop-color="#FFBD00"/>
<stop offset="0.775" stop-color="#FFA500"/>
<stop offset="1" stop-color="#FF9C00"/>
</linearGradient>
<linearGradient id="paint2_linear" x1="30.8791" y1="31.8095" x2="-2.74587" y2="87.8049" gradientUnits="userSpaceOnUse">
<stop stop-color="#FF3A44"/>
<stop offset="1" stop-color="#C31162"/>
</linearGradient>
<linearGradient id="paint3_linear" x1="-5.58456" y1="-14.6289" x2="9.41961" y2="10.3609" gradientUnits="userSpaceOnUse">
<stop stop-color="#32A071"/>
<stop offset="0.069" stop-color="#2DA771"/>
<stop offset="0.476" stop-color="#15CF74"/>
<stop offset="0.801" stop-color="#06E775"/>
<stop offset="1" stop-color="#00F076"/>
</linearGradient>
</defs>
</svg>
